<svg width="48" height="48" viewBox="0 0 48 48" fill="none" xmlns="http://www.w3.org/2000/svg">
  <style>
    .forge-eye {
      transform-box: fill-box;
      transform-origin: center;
      animation: forge-blink 5.2s ease-in-out infinite;
    }
    @keyframes forge-blink {
      0%, 43%, 47%, 51%, 100% { transform: scaleY(1); }
      45%, 49% { transform: scaleY(0.08); }
    }
    @media (prefers-reduced-motion: reduce) {
      .forge-eye { animation: none; }
    }
  </style>
  <rect x="22.5" y="4" width="3" height="6" rx="1.5" fill="#0097FF"/>
  <circle cx="24" cy="4" r="2.5" fill="#0097FF"/>
  <path d="M24 8 C13.507 8 5 16.507 5 27 C5 37.493 13.507 46 24 46 C29.233 46 33.975 43.884 37.412 40.462 L43 42 L41.184 36.696 C42.986 33.874 44 30.547 44 27 C44 16.507 35.493 8 24 8Z" fill="#0097FF"/>
  <g transform="rotate(-10 15.5 20)"><rect class="forge-eye" x="15.5" y="20" width="5.5" height="10" rx="2.75" fill="white"/></g>
  <g transform="rotate(-10 27.5 19)"><rect class="forge-eye" x="27.5" y="19" width="5.5" height="10" rx="2.75" fill="white"/></g>
</svg>
